<?xml version="1.0" encoding="UTF-8" standalone="no"?>
<!-- Created with Inkscape (http://www.inkscape.org/) -->

<svg
  id="svg1"
  width="180"
  height="180"
  viewBox="0 0 180 180"
  version="1.1"
  sodipodi:docname="yashima.svg"
  inkscape:version="1.4.2 (f4327f4, 2025-05-13)"
  xmlns:inkscape="http://www.inkscape.org/namespaces/inkscape"
  xmlns:sodipodi="http://sodipodi.sourceforge.net/DTD/sodipodi-0.dtd"
  xmlns="http://www.w3.org/2000/svg"
  xmlns:svg="http://www.w3.org/2000/svg">
  <style
    id="style1">
    path {
      fill: black;
      @media (prefers-color-scheme: dark) {
        fill: white;
      }
    }
  </style>
  <sodipodi:namedview
    id="namedview1"
    pagecolor="#ffffff"
    bordercolor="#000000"
    borderopacity="0.25"
    inkscape:showpageshadow="2"
    inkscape:pageopacity="0.0"
    inkscape:pagecheckerboard="0"
    inkscape:deskcolor="#d1d1d1"
    inkscape:document-units="px"
    inkscape:zoom="5.78"
    inkscape:cx="90.224913"
    inkscape:cy="89.359862"
    inkscape:window-width="2256"
    inkscape:window-height="1470"
    inkscape:window-x="-11"
    inkscape:window-y="-11"
    inkscape:window-maximized="1"
    inkscape:current-layer="layer1" />
    <!-- inkscape:export-bgcolor="#ffffffff" /> --> <!-- export apple-touch-icon png -->
  <defs
    id="defs1" />
  <g
    id="layer1"
    inkscape:label="Layer 1"
    inkscape:groupmode="layer">
    <g
      id="g1"
      inkscape:label="ya">
      <path
        id="path1"
        d="m 5.76277,75.96616 11.73577,-0.491918 12.579058,-7.238229 -2.47518,-10.152838 -2.964253,-1.447293 -5.685789,-7.545719 8.595356,-0.601163 5.835547,1.139242 2.306544,1.522369 -0.713623,6.141767 1.426065,8.413768 15.319747,-8.64371 4.414734,-0.314189 4.385719,-3.822722 4.531901,-0.04602 4.418608,4.120452 -0.0479,1.434 -7.232229,8.958768 -6.113844,12.860155 -1.377104,6.67823 -2.926666,1.643949 -0.685689,-6.944344 2.644456,-4.075727 1.44261,-4.721198 2.167326,-5.910332 -6.605762,-0.588375 -11.173577,6.749842 1.8974,12.78988 4.708362,9.557274 -0.983837,4.216447 3.302882,5.270555 2.24877,10.11947 4.49754,5.34083 0.983837,7.8707 -6.957133,1.96767 -5.762473,-5.83275 -0.210823,-13.42235 -4.49754,-15.881942 -5.130007,-15.319748 -5.200281,-0.140548 -3.513704,1.8974 -0.632466,3.162333 -2.600141,0.07027 -0.35137,2.600141 L 8.925103,86.858641 5.200578,83.836856 3.514,78.987945 Z" />
    </g>
    <g
      id="g2"
      inkscape:label="shi">
      <path
        id="path2-1"
        d="m 72.101195,73.717498 8.151792,0.351371 7.800421,5.059733 5.481378,5.692199 v 1.054111 l -4.14617,2.951511 -2.529867,-0.210822 -3.7948,-3.583978 -3.654251,0.491919 -0.140548,-2.951511 -4.216444,-0.491919 -2.740689,-4.427266 z" />
      <path
        id="path2-2"
        d="m 73.366127,93.464512 7.940971,3.232607 5.762473,3.513701 0.281097,3.65425 -4.216445,1.12439 -2.108222,2.24877 -4.638088,-2.1785 L 72.874209,100 71.890372,94.588897 Z" />
      <path
        id="path2-3"
        d="m 74.841883,111.17358 2.810963,4.14617 1.686578,4.14617 7.097681,-3.23261 11.595221,-7.5896 9.065354,-6.46521 4.84891,-2.389322 3.51371,-3.021785 0.28109,-1.756852 4.56782,-0.07027 -0.2811,1.616304 -1.96767,0.773014 -4.84892,6.465211 -4.42726,3.58398 -1.82713,3.44343 -4.42726,4.77863 -1.96768,1.40548 -3.162331,2.03795 -4.356992,5.27056 -5.130007,1.68658 -4.848911,5.05973 -4.075896,1.75685 -6.676036,-5.48138 -2.178496,-3.65425 -0.843289,-4.00562 1.8974,-5.34083 1.686577,-2.60014 z" />
    </g>
    <g
      id="g3"
      inkscape:label="ma">
      <path
        id="path3"
        d="m 113.63317,62.262825 h 2.03795 l 0.98383,1.405481 4.91919,1.405482 6.53549,-0.562193 7.51932,-3.302881 12.71961,-3.092059 8.78426,-1.54603 11.31412,0.140549 6.74631,6.465214 -2.03794,2.810963 -1.96768,-1.054111 -1.6163,-0.140549 -1.26494,2.389319 -4.28671,3.162333 -3.37316,7.238229 -2.24877,2.740689 -2.95151,0.983837 -3.02178,4.005622 -2.74069,5.903021 -2.88124,4.075896 -6.04357,5.903023 -1.82713,2.38932 0.91357,3.09206 10.11946,8.08151 2.52987,5.76248 0.77301,5.13001 -3.5137,4.70836 -3.37315,0.63246 -4.70837,-1.6163 -5.48137,-5.90302 -4.98946,-8.78426 -2.10823,-12.22769 5.9733,-0.21082 7.3085,-8.081518 5.05974,-4.84891 0.49191,-3.724526 2.24878,-4.286718 5.20028,-6.184118 2.10822,-3.513704 0.84329,-4.427266 -9.487,-0.07027 -7.23823,1.475755 -4.35699,3.7948 -4.357,1.264933 -4.70836,2.178496 -0.35137,2.037948 -7.51932,0.210823 -5.34083,-3.513704 -2.74069,-4.49754 -0.35137,-6.605763 z" />
    </g>
  </g>
</svg>
